<svg width="70" height="84" viewBox="0 0 70 84" fill="none" xmlns="http://www.w3.org/2000/svg">
<path d="M23.296 81.28L24.704 79.232C26.6667 76.672 28.0747 73.984 28.928 71.168C29.7813 68.352 30.208 64.5973 30.208 59.904V49.024L11.648 16.512C9.42933 12.672 7.50933 9.728 5.888 7.68C4.26667 5.54667 2.304 3.584 0 1.792L1.536 0H27.776L28.928 3.968L26.496 4.608C24.6187 5.03467 23.2533 5.67467 22.4 6.528C21.5467 7.296 21.12 8.36267 21.12 9.728C21.12 10.6667 22.3147 13.056 24.704 16.896L37.376 38.912L50.304 15.488C51.2427 13.6107 51.712 12.032 51.712 10.752C51.712 9.13067 51.2427 7.808 50.304 6.784C49.3653 5.67467 48.2133 4.94934 46.848 4.608L44.416 3.968L45.568 0H67.712L69.12 1.792L67.456 3.968C64.2133 7.97867 61.5253 12.0747 59.392 16.256L41.216 48.128V67.84C41.216 71.3387 41.7707 73.8133 42.88 75.264C43.9893 76.7147 46.0373 77.824 49.024 78.592L51.456 79.232L50.176 83.2H24.704L23.296 81.28Z" fill="url(#paint0_linear_201_91)"/>
<defs>
<linearGradient id="paint0_linear_201_91" x1="34.56" y1="0" x2="34.56" y2="83.2" gradientUnits="userSpaceOnUse">
<stop stop-color="#784BD7"/>
<stop offset="0.515625" stop-color="#9A87C2"/>
<stop offset="1" stop-color="#7C00F9" stop-opacity="0"/>
</linearGradient>
</defs>
</svg>
